<svg version="1.0" xmlns="http://www.w3.org/2000/svg"
 width="64.000000pt" height="64.000000pt" viewBox="0 0 64.000000 64.000000"
 preserveAspectRatio="xMidYMid meet">

<g transform="translate(0.000000,64.000000) scale(0.100000,-0.100000)"
fill="#000000" stroke="none">
<path d="M347 478 c-8 -13 -39 -87 -68 -166 -49 -134 -52 -144 -36 -160 13
-13 21 -14 35 -6 25 16 137 315 124 334 -15 24 -40 23 -55 -2z"/>
<path d="M102 386 c-29 -30 -52 -60 -52 -66 0 -6 23 -36 52 -66 40 -43 57 -54
77 -52 40 5 38 35 -5 79 l-38 39 38 39 c43 44 45 74 5 79 -20 2 -37 -9 -77
-52z"/>
<path d="M437 433 c-15 -14 -5 -39 30 -75 l37 -38 -38 -39 c-43 -44 -45 -74
-5 -79 20 -2 37 9 77 52 29 30 52 60 52 66 0 6 -23 36 -51 66 -48 50 -83 66
-102 47z"/>
</g>
</svg>
