<svg role="img" viewBox="0 0 24 24" xmlns="http://www.w3.org/2000/svg"
  id="Nginx--Streamline-Simple-Icons" height="24" width="24">
  <desc>Nginx Streamline Icon: https://streamlinehq.com</desc>
  <title>NGINX</title>
  <path
    d="M12 0 1.605 6v12L12 24l10.395 -6V6L12 0zm6 16.59c0 0.705 -0.646 1.29 -1.529 1.29 -0.631 0 -1.351 -0.255 -1.801 -0.81l-6 -7.141v6.66c0 0.721 -0.57 1.29 -1.274 1.29H7.32c-0.721 0 -1.29 -0.6 -1.29 -1.29V7.41c0 -0.705 0.63 -1.29 1.5 -1.29 0.646 0 1.38 0.255 1.83 0.81l5.97 7.141V7.41c0 -0.721 0.6 -1.29 1.29 -1.29h0.075c0.72 0 1.29 0.6 1.29 1.29v9.18H18z"
    fill="#000000" stroke-width="1"></path>
</svg>